<?xml version="1.0" encoding="iso-8859-1"?>
<!-- Generator: Adobe Illustrator 19.0.0, SVG Export Plug-In . SVG Version: 6.00 Build 0)  -->
<svg version="1.1" id="Capa_1" xmlns="http://www.w3.org/2000/svg" xmlns:xlink="http://www.w3.org/1999/xlink" x="0px" y="0px"
	 viewBox="0 0 512 512" style="enable-background:new 0 0 512 512;" xml:space="preserve">
	<g>
		<path d="M406.472,264.365c0,36.053-43.89,79.943-43.89,79.943l28.215,1.568
			c-6.051,11.715-15.184,23.241-25.582,34.005c-28.623,29.616-78.773,9.865-79.515-31.319l-1.578-87.718
			c-0.303-16.584,12.551-30.399,29.103-31.382c16.187-0.972,32.385-2.351,48.582-4.138c9.353-1.035,16.459-8.903,16.459-18.309
			v-22.133c0-9.416-7.106-17.284-16.459-18.319c-17.065-1.881-34.119-3.313-51.184-4.285c-17.765-1.003-26.125-22.541-13.585-35.164
			c0.982-0.993,2.017-1.944,3.093-2.853c15.811-13.47,25.613-33.806,24.777-56.399c-1.369-37.108-31.82-67.037-68.908-67.842
			c-0.125-0.01-0.251-0.01-0.376-0.01c-39.501-0.648-71.729,31.173-71.729,70.517c0,22.28,10.325,42.145,26.449,55.072
			c0.105,0.084,0.219,0.178,0.324,0.261c14.578,11.882,6.719,35.468-12.049,36.586c-10.659,0.637-21.308,1.453-31.967,2.456
			c-5.528,0.512-11.067,1.076-16.605,1.682c-9.301,1.035-16.323,8.935-16.323,18.298v22.133c0,9.405,7.106,17.274,16.459,18.309
			c16.198,1.787,32.385,3.166,48.582,4.138c16.553,0.982,29.396,14.797,29.103,31.382l-1.578,87.718
			c-0.742,41.184-50.892,60.934-79.515,31.319c-10.387-10.764-19.531-22.29-25.582-34.005l28.215-1.568c0,0-43.89-43.89-43.89-79.943
			c0,0-45.552,40.755-38.446,106.591l25.906-12.54c0,0,12.54,37.62,42.323,67.403c44.674,44.664,98.753,34.475,120.698,86.182
			c21.935-51.707,76.014-41.518,120.688-86.182c29.783-29.783,42.323-67.403,42.323-67.403l25.916,12.54
			C452.024,305.12,406.472,264.365,406.472,264.365z M256.001,102.285c-0.523,0.031-1.045,0.042-1.568,0.042
			c-17.567,0-31.8-14.233-31.8-31.8c0-17.556,14.233-31.789,31.8-31.789c0.523,0,1.045,0.01,1.568,0.042
			c16.825,0.815,30.222,14.714,30.222,31.747C286.223,87.571,272.826,101.469,256.001,102.285z"/>
		<path d="M222.634,70.527c0,17.567,14.233,31.8,31.8,31.8c0.523,0,1.045-0.01,1.568-0.042V512
			c-21.945-51.707-76.024-41.518-120.698-86.182c-29.783-29.783-42.323-67.403-42.323-67.403l-25.906,12.54
			c-7.106-65.835,38.446-106.591,38.446-106.591c0,36.053,43.89,79.943,43.89,79.943l-28.215,1.568
			c6.051,11.715,15.194,23.241,25.582,34.005c28.623,29.616,78.773,9.865,79.515-31.319l1.578-87.718
			c0.293-16.584-12.551-30.399-29.103-31.382c-16.198-0.972-32.385-2.351-48.582-4.138c-9.353-1.035-16.459-8.903-16.459-18.309
			v-22.133c0-9.363,7.022-17.264,16.323-18.298c5.539-0.606,11.077-1.17,16.605-1.682c10.659-1.003,21.308-1.818,31.967-2.456
			c18.768-1.118,26.627-24.704,12.049-36.586c-0.105-0.084-0.219-0.178-0.324-0.261c-16.124-12.927-26.449-32.792-26.449-55.072
			c0-39.345,32.228-71.165,71.729-70.517c0.125,0,0.251,0,0.376,0.01v38.759c-0.523-0.031-1.045-0.042-1.568-0.042
			C236.867,38.738,222.634,52.971,222.634,70.527z"/>
	</g>
<g>
</g>
<g>
</g>
<g>
</g>
<g>
</g>
<g>
</g>
<g>
</g>
<g>
</g>
<g>
</g>
<g>
</g>
<g>
</g>
<g>
</g>
<g>
</g>
<g>
</g>
<g>
</g>
</svg>
