<svg width="218" height="31" viewBox="0 0 218 31" fill="none" xmlns="http://www.w3.org/2000/svg">
<path d="M29.4473 7.09595H33.4862V24.2008C33.4862 28.3005 32.3075 31.0001 28.099 31.0001C26.1777 30.9973 24.321 30.2956 22.8657 29.0224L23.6607 26.0124C24.0718 26.4771 25.3694 27.6321 27.2067 27.6558C28.4848 27.6716 29.4473 26.758 29.4473 25.3222V7.09595Z" fill="white"/>
<path d="M53.3307 16.573H40.1345C40.1345 19.3417 42.0536 21.4242 45.623 21.4242C47.9747 21.4242 50.1549 20.463 51.3161 19.3437L52.2552 22.2785C50.4705 23.92 47.9123 24.7744 45.1164 24.7744C40.1014 24.7744 36.0273 21.0168 36.0273 15.9579C36.0273 10.8318 39.9338 6.66284 44.8144 6.66284C50.2348 6.66284 53.432 10.3196 53.432 15.3765C53.4308 15.7774 53.3969 16.1776 53.3307 16.573ZM44.8144 10.011C42.492 10.011 40.6742 11.516 40.1014 13.9071H49.6288C49.1905 11.6861 47.5421 10.011 44.8144 10.011Z" fill="white"/>
<path d="M62.2892 18.2461C62.2892 20.3998 63.4679 21.1513 64.7811 21.1513C65.7529 21.1572 66.7153 20.9592 67.6082 20.5699V23.7816C66.4645 24.2958 64.9487 24.4995 63.5693 24.4995C60.5727 24.4995 58.2834 23.0301 58.2834 18.7247V10.5589H54.9517V7.17509H58.221L59.277 3.17822H62.2892V7.17509H67.5751V10.5589H62.2892V18.2461Z" fill="white"/>
<path d="M74.5541 0V24.2601H70.5405V0H74.5541Z" fill="white"/>
<path d="M110.673 14.625C110.673 12.1647 109.503 10.6261 107.475 10.6261C105.959 10.6261 103.503 11.6861 102.357 13.9763V24.2602H98.3511V7.17508H102.357V9.74605C103.838 7.79805 106.162 6.73999 108.652 6.73999C112.12 6.73999 114.678 9.20022 114.678 13.6084V24.2681H110.673V14.625Z" fill="white"/>
<path d="M131.177 24.2601V22.0392C130.552 22.8821 129.744 23.5673 128.816 24.0417C127.888 24.516 126.864 24.7667 125.825 24.7743C120.909 24.7743 117.611 20.7062 117.611 15.7185C117.611 10.7645 120.909 6.66278 125.825 6.66278C126.867 6.67664 127.891 6.93357 128.819 7.41368C129.747 7.8938 130.554 8.58422 131.177 9.43151V0H135.183V24.2601H131.177ZM131.177 18.8966V12.5681C130.694 11.9157 130.069 11.3852 129.351 11.0179C128.633 10.6505 127.841 10.4562 127.037 10.45C124.21 10.45 121.887 12.8766 121.887 15.7126C121.873 16.8187 122.204 17.9009 122.834 18.8037C123.464 19.7065 124.359 20.3832 125.392 20.7365C126.425 21.0898 127.541 21.1015 128.581 20.7698C129.62 20.4381 130.529 19.7802 131.177 18.8907V18.8966Z" fill="white"/>
<path d="M95.1169 16.573H81.9206C81.9206 19.3417 83.8378 21.4242 87.4072 21.4242C89.7589 21.4242 91.941 20.463 93.1003 19.3437L94.0375 22.2785C92.2528 23.92 89.6946 24.7744 86.9006 24.7744C81.8836 24.7744 77.8115 21.0168 77.8115 15.9579C77.8115 10.8318 81.7082 6.66284 86.5967 6.66284C92.017 6.66284 95.2143 10.3196 95.2143 15.3765C95.2134 15.7773 95.1808 16.1774 95.1169 16.573ZM86.5986 10.011C84.2762 10.011 82.4584 11.516 81.8856 13.9071H91.413C90.9747 11.6861 89.3263 10.011 86.5986 10.011Z" fill="white"/>
<path d="M24.2064 0.0632324L0 7.17494L10.1003 17.4272L17.6833 24.7742L24.2064 0.0632324Z" fill="#0BD194"/>
<path d="M142.369 8.60278V12.9161L145.582 8.60278H146.135V13.6201H145.611V9.32463L142.408 13.63H141.845V8.60278H142.369Z" fill="white"/>
<path d="M151.452 11.2608H148.239V13.6201H147.715V8.60278H148.239V10.7782H151.452V8.60278H151.974V13.6201H151.452V11.2608Z" fill="white"/>
<path d="M157.262 9.81719C157.261 10.0445 157.197 10.267 157.079 10.4599C156.958 10.6671 156.79 10.8421 156.59 10.9702C156.848 11.0679 157.07 11.2431 157.227 11.4725C157.38 11.6921 157.462 11.9549 157.461 12.224C157.462 12.4095 157.427 12.5934 157.357 12.7649C157.288 12.9363 157.185 13.0918 157.054 13.222C156.924 13.3522 156.77 13.4546 156.6 13.523C156.43 13.5914 156.248 13.6245 156.066 13.6203H153.556V8.6029H155.949C156.294 8.59242 156.63 8.71864 156.886 8.95492C157.006 9.0624 157.102 9.19518 157.167 9.34407C157.232 9.49295 157.265 9.65439 157.262 9.81719ZM156.738 9.87849C156.742 9.76763 156.72 9.65743 156.673 9.557C156.627 9.45657 156.557 9.36882 156.471 9.30102C156.285 9.15441 156.055 9.07816 155.82 9.08545H154.08V10.7704H155.82C156.06 10.7742 156.292 10.6826 156.467 10.5153C156.554 10.4351 156.624 10.3367 156.671 10.2268C156.717 10.1169 156.74 9.99814 156.738 9.87849ZM154.08 13.1377H155.918C156.176 13.1474 156.429 13.0577 156.625 12.8865C156.718 12.8027 156.792 12.6989 156.841 12.5826C156.89 12.4663 156.912 12.3405 156.907 12.2141C156.911 12.0851 156.888 11.9567 156.839 11.8374C156.79 11.7182 156.717 11.6106 156.625 11.5219C156.434 11.34 156.179 11.2426 155.918 11.251H154.08V13.1377Z" fill="white"/>
<path d="M163.31 10.907V11.0177H158.783C158.78 11.0908 158.78 11.1641 158.783 11.2372C158.774 11.5135 158.826 11.7882 158.935 12.0417C159.043 12.2952 159.206 12.521 159.411 12.7027C159.842 13.0821 160.399 13.2826 160.97 13.2644C161.286 13.2607 161.599 13.1977 161.893 13.0785C162.185 12.9708 162.45 12.8016 162.672 12.5821L163.037 12.9637C162.77 13.2281 162.451 13.4306 162.1 13.5571C161.736 13.6965 161.351 13.7694 160.962 13.7726C160.254 13.7929 159.566 13.5398 159.035 13.0646C158.781 12.838 158.579 12.5573 158.444 12.2424C158.31 11.9275 158.245 11.5863 158.255 11.2432C158.238 10.5125 158.5 9.80336 158.988 9.26551C159.212 9.00545 159.488 8.798 159.799 8.65761C160.109 8.51723 160.446 8.4473 160.786 8.45268C161.597 8.45268 162.221 8.69857 162.659 9.19036C163.084 9.65707 163.317 10.2714 163.31 10.907ZM162.756 10.5352C162.689 10.0969 162.47 9.69735 162.139 9.4079C161.757 9.08717 161.27 8.92408 160.775 8.95105C160.329 8.9428 159.896 9.0972 159.553 9.38614C159.205 9.68304 158.961 10.0861 158.858 10.5352H162.756Z" fill="white"/>
<path d="M165.104 9.57192C164.737 9.99846 164.535 10.5454 164.535 11.1115C164.535 11.6777 164.737 12.2246 165.104 12.6512C165.291 12.8544 165.519 13.0147 165.772 13.1211C166.025 13.2276 166.297 13.2777 166.571 13.2682C166.861 13.2673 167.147 13.2063 167.412 13.089C167.678 12.9717 167.916 12.8004 168.114 12.5859L168.479 12.9676C168.231 13.2264 167.935 13.4312 167.607 13.5693C167.279 13.7073 166.926 13.7758 166.571 13.7705C166.228 13.7769 165.888 13.7086 165.573 13.57C165.259 13.4315 164.977 13.2261 164.747 12.9676C164.276 12.4681 164.013 11.8031 164.013 11.1115C164.013 10.4199 164.276 9.75503 164.747 9.25549C164.977 8.99701 165.259 8.79157 165.573 8.65305C165.888 8.51453 166.228 8.44616 166.571 8.45256C166.926 8.44725 167.279 8.51574 167.607 8.65382C167.935 8.79191 168.231 8.99666 168.479 9.25549L168.114 9.63718C167.916 9.42263 167.678 9.25142 167.412 9.13408C167.147 9.01674 166.861 8.95576 166.571 8.95489C166.297 8.94538 166.025 8.99553 165.772 9.10197C165.519 9.2084 165.291 9.36865 165.104 9.57192Z" fill="white"/>
<path d="M173.213 8.60278V9.08534H171.354V13.6201H170.83V9.08534H168.973V8.60278H173.213Z" fill="white"/>
<path d="M174.577 8.60278V12.9161L177.788 8.60278H178.341V13.6201H177.817V9.32463L174.614 13.63H174.051V8.60278H174.577Z" fill="white"/>
<path d="M180.447 13.1376H183.69V8.60278H184.212V13.1376H184.935V15.0342H184.41V13.6201H179.929V8.60278H180.453L180.447 13.1376Z" fill="white"/>
<path d="M186.514 8.60278V12.9161L189.727 8.60278H190.286V13.6201H189.762V9.32463L186.561 13.63H186V8.60278H186.514Z" fill="white"/>
<path d="M196.081 13.0033C195.546 13.497 194.848 13.7706 194.125 13.7706C193.401 13.7706 192.704 13.497 192.169 13.0033C191.686 12.4953 191.417 11.8172 191.417 11.1116C191.417 10.406 191.686 9.7279 192.169 9.21997C192.704 8.72621 193.401 8.45264 194.125 8.45264C194.848 8.45264 195.546 8.72621 196.081 9.21997C196.563 9.7279 196.833 10.406 196.833 11.1116C196.833 11.8172 196.563 12.4953 196.081 13.0033ZM194.133 13.3493C194.423 13.3565 194.711 13.3021 194.98 13.1898C195.248 13.0774 195.49 12.9095 195.691 12.6967C196.094 12.2713 196.319 11.7044 196.319 11.1146C196.319 10.5248 196.094 9.95785 195.691 9.53244C195.487 9.32363 195.244 9.15791 194.977 9.04482C194.709 8.93172 194.422 8.8735 194.133 8.8735C193.843 8.8735 193.556 8.93172 193.288 9.04482C193.021 9.15791 192.778 9.32363 192.574 9.53244C192.174 9.95901 191.95 10.5255 191.95 11.1146C191.95 11.7036 192.174 12.2701 192.574 12.6967C192.774 12.9088 193.015 13.0763 193.282 13.1887C193.549 13.301 193.836 13.3558 194.125 13.3493H194.133Z" fill="white"/>
<path d="M201.706 11.2608H198.493V13.6201H197.969V8.60278H198.493V10.7782H201.706V8.60278H202.228V13.6201H201.706V11.2608Z" fill="white"/>
<path d="M207.545 11.2608H204.334V13.6201H203.81V8.60278H204.334V10.7782H207.545V8.60278H208.069V13.6201H207.545V11.2608Z" fill="white"/>
<path d="M210.845 13.7706C210.411 13.7945 209.983 13.6535 209.645 13.3751C209.501 13.2467 209.386 13.0873 209.31 12.9084C209.234 12.7294 209.198 12.5355 209.205 12.3407C209.196 12.1426 209.234 11.9453 209.315 11.7648C209.396 11.5844 209.518 11.4259 209.67 11.3025C209.999 11.0449 210.386 10.8774 210.797 10.816C211.456 10.7303 212.119 10.6867 212.784 10.6854V10.1752C212.784 9.70054 212.665 9.37423 212.427 9.19624C212.134 9.00393 211.788 8.91114 211.44 8.93123C211.145 8.93143 210.853 8.99295 210.583 9.112C210.312 9.23105 210.069 9.40511 209.867 9.62342L209.532 9.2615C209.795 8.99626 210.109 8.78759 210.453 8.64793C210.798 8.50828 211.166 8.44052 211.537 8.44868C211.83 8.44162 212.122 8.48921 212.398 8.5891C212.593 8.65805 212.773 8.7656 212.926 8.90552C213.049 9.03591 213.141 9.19371 213.193 9.36632C213.244 9.50734 213.279 9.65406 213.296 9.80339C213.296 9.90425 213.306 10.0269 213.306 10.1752V13.6163H212.784V12.6413C212.203 13.3942 211.557 13.7706 210.845 13.7706ZM210.845 13.288C211.59 13.288 212.239 12.8635 212.794 12.0144V11.1719C212.159 11.1679 211.525 11.2082 210.896 11.2926C210.793 11.3082 210.692 11.3333 210.594 11.3677C210.466 11.4125 210.342 11.4695 210.224 11.5378C210.084 11.6166 209.965 11.7286 209.877 11.8641C209.785 12.0066 209.736 12.1741 209.739 12.3447C209.727 12.4868 209.754 12.6295 209.815 12.7576C209.877 12.8857 209.972 12.9945 210.089 13.0725C210.318 13.211 210.579 13.2828 210.845 13.2801V13.288Z" fill="white"/>
<path d="M217.478 11.6722H216.32L214.968 13.6202H214.296L215.699 11.6722C215.502 11.6619 215.31 11.6114 215.133 11.5237C214.956 11.436 214.799 11.313 214.67 11.1619C214.427 10.8779 214.294 10.5137 214.296 10.1375C214.294 9.73982 214.444 9.35688 214.715 9.06954C214.861 8.91276 215.038 8.78988 215.235 8.70932C215.432 8.62875 215.644 8.59242 215.857 8.60281H218V13.6202H217.476L217.478 11.6722ZM217.478 9.08536H215.847C215.713 9.08161 215.579 9.10484 215.453 9.15371C215.328 9.20259 215.213 9.27614 215.116 9.37015C214.924 9.57825 214.818 9.85254 214.818 10.1375C214.818 10.4224 214.924 10.6967 215.116 10.9048C215.213 10.9994 215.328 11.0735 215.453 11.1228C215.579 11.172 215.712 11.1954 215.847 11.1916H217.478V9.08536Z" fill="white"/>
<path d="M145.611 19.7709H142.369V24.3057H141.845V19.2903H146.131V24.3057H145.611V19.7709Z" fill="white"/>
<path d="M147.033 24.3057V23.8231H147.35C147.68 23.8231 147.915 23.6392 148.061 23.2713C148.208 22.9035 148.278 22.2429 148.278 21.2937V19.2903H151.806V24.3057H151.282V19.7709H148.786V21.2858C148.786 23.299 148.302 24.3057 147.335 24.3057H147.033Z" fill="white"/>
<path d="M154.575 24.456C154.14 24.4804 153.711 24.3394 153.373 24.0605C153.229 23.9322 153.115 23.7731 153.039 23.5945C152.963 23.4159 152.927 23.2224 152.935 23.0281C152.925 22.8301 152.962 22.6327 153.043 22.4522C153.124 22.2717 153.245 22.1132 153.398 21.9899C153.726 21.7311 154.114 21.5634 154.524 21.5033C155.183 21.4157 155.847 21.3721 156.512 21.3728V20.8606C156.512 20.386 156.393 20.0563 156.155 19.8718C155.862 19.6795 155.516 19.5867 155.167 19.6068C154.873 19.6075 154.581 19.6693 154.311 19.7883C154.041 19.9073 153.797 20.0811 153.595 20.2989L153.26 19.937C153.523 19.6717 153.837 19.463 154.182 19.3234C154.527 19.1837 154.896 19.116 155.267 19.1242C155.559 19.1173 155.85 19.1649 156.126 19.2646C156.321 19.3332 156.501 19.4408 156.654 19.581C156.777 19.7119 156.869 19.8704 156.921 20.0438C156.972 20.1842 157.007 20.3302 157.024 20.4789C157.024 20.5798 157.036 20.7044 157.036 20.8507V24.2919H156.512V23.3188C155.931 24.0756 155.286 24.4547 154.575 24.456ZM154.575 23.9735C155.319 23.9735 155.965 23.5489 156.512 22.6998V21.8573C155.877 21.8533 155.243 21.8936 154.614 21.978C154.511 21.9936 154.41 22.0187 154.312 22.0531C154.184 22.0988 154.06 22.1557 153.942 22.2232C153.802 22.302 153.683 22.414 153.595 22.5495C153.502 22.6926 153.454 22.8608 153.457 23.0321C153.444 23.174 153.47 23.3168 153.532 23.4448C153.594 23.5727 153.689 23.681 153.807 23.7579C154.038 23.9012 154.304 23.9759 154.575 23.9735Z" fill="white"/>
<path d="M161.967 19.2903V19.7709H160.108V24.3057H159.584V19.7709H157.728V19.2903H161.967Z" fill="white"/>
<path d="M165.772 24.4558H165.474V26.3524H164.958V24.4558H164.66C164.318 24.4593 163.979 24.3908 163.664 24.2546C163.35 24.1185 163.066 23.9176 162.832 23.6647C162.342 23.1658 162.067 22.4902 162.067 21.7859C162.067 21.0817 162.342 20.4061 162.832 19.9071C163.066 19.6543 163.35 19.4534 163.664 19.3172C163.979 19.1811 164.318 19.1126 164.66 19.1161H164.958V17.1602H165.48V19.1161H165.778C166.12 19.1126 166.459 19.1811 166.773 19.3172C167.088 19.4534 167.371 19.6543 167.606 19.9071C168.095 20.4061 168.37 21.0817 168.37 21.7859C168.37 22.4902 168.095 23.1658 167.606 23.6647C167.371 23.9183 167.086 24.1196 166.771 24.2558C166.455 24.392 166.115 24.4601 165.772 24.4558ZM164.773 19.5907C164.196 19.5907 163.643 19.8232 163.235 20.2372C162.827 20.6511 162.598 21.2124 162.598 21.7978C162.598 22.3832 162.827 22.9445 163.235 23.3584C163.643 23.7723 164.196 24.0049 164.773 24.0049H164.952V19.5907H164.773ZM165.653 24.0049C166.228 24.0002 166.777 23.7659 167.182 23.3527C167.587 22.9395 167.816 22.3808 167.818 21.7978C167.821 21.5079 167.766 21.2204 167.656 20.9529C167.546 20.6853 167.384 20.4432 167.179 20.2414C166.982 20.0326 166.745 19.8671 166.483 19.7552C166.22 19.6432 165.938 19.5873 165.653 19.5907H165.474V24.0049H165.653Z" fill="white"/>
<path d="M173.726 23.6885C173.19 24.1824 172.492 24.456 171.769 24.456C171.045 24.456 170.347 24.1824 169.811 23.6885C169.33 23.1799 169.062 22.502 169.062 21.7969C169.062 21.0917 169.33 20.4139 169.811 19.9052C170.347 19.4113 171.045 19.1377 171.769 19.1377C172.492 19.1377 173.19 19.4113 173.726 19.9052C174.207 20.4139 174.476 21.0917 174.476 21.7969C174.476 22.502 174.207 23.1799 173.726 23.6885ZM171.777 24.0346C172.068 24.0417 172.356 23.9874 172.624 23.875C172.893 23.7627 173.135 23.5947 173.336 23.382C173.738 22.9566 173.963 22.3896 173.963 21.7998C173.963 21.21 173.738 20.6431 173.336 20.2177C173.132 20.0089 172.889 19.8432 172.622 19.7301C172.354 19.617 172.067 19.5588 171.777 19.5588C171.487 19.5588 171.201 19.617 170.933 19.7301C170.666 19.8432 170.423 20.0089 170.219 20.2177C169.818 20.6443 169.595 21.2108 169.595 21.7998C169.595 22.3889 169.818 22.9554 170.219 23.382C170.417 23.5928 170.657 23.7596 170.922 23.8719C171.187 23.9842 171.472 24.0396 171.76 24.0346H171.777Z" fill="white"/>
<path d="M177.996 24.4559C177.647 24.4613 177.3 24.3927 176.978 24.2545C176.657 24.1162 176.367 23.9114 176.128 23.653V26.3525H175.605V19.2902H176.128V19.9508C176.366 19.69 176.655 19.4829 176.977 19.3429C177.299 19.2028 177.646 19.133 177.996 19.1379C178.338 19.1345 178.677 19.203 178.992 19.3391C179.306 19.4753 179.589 19.6761 179.824 19.929C180.313 20.4279 180.588 21.1035 180.588 21.8078C180.588 22.5121 180.313 23.1877 179.824 23.6866C179.588 23.9355 179.303 24.1323 178.989 24.2647C178.674 24.3971 178.336 24.4622 177.996 24.4559ZM177.877 19.5908C177.538 19.5907 177.203 19.6749 176.903 19.8361C176.603 19.9952 176.342 20.2194 176.137 20.4926V23.1012C176.335 23.3814 176.596 23.6088 176.899 23.7637C177.205 23.9233 177.543 24.0061 177.887 24.005C178.462 24.0013 179.012 23.7673 179.417 23.3539C179.823 22.9405 180.051 22.3812 180.052 21.7979C180.055 21.5082 180 21.2207 179.891 20.9531C179.781 20.6856 179.619 20.4434 179.414 20.2415C179.216 20.0313 178.977 19.865 178.713 19.7531C178.448 19.6411 178.164 19.5859 177.877 19.5908Z" fill="white"/>
<path d="M184.214 22.148L186.141 19.2903H186.704V24.3057H186.18V20.1525L184.362 22.8105H184.052L182.244 20.1525V24.3057H181.714V19.2903H182.277L184.214 22.148Z" fill="white"/>
<path d="M189.48 24.4558C189.045 24.4797 188.617 24.3387 188.28 24.0603C188.135 23.9325 188.02 23.7735 187.944 23.5948C187.868 23.4162 187.832 23.2225 187.839 23.0279C187.83 22.83 187.867 22.6325 187.948 22.452C188.028 22.2715 188.15 22.113 188.303 21.9897C188.631 21.7306 189.02 21.5629 189.431 21.5032C190.089 21.4154 190.753 21.3718 191.417 21.3726V20.8604C191.417 20.3858 191.298 20.0562 191.062 19.8716C190.768 19.679 190.421 19.5862 190.072 19.6066C189.778 19.6071 189.487 19.6689 189.216 19.7879C188.946 19.9069 188.703 20.0808 188.502 20.2988L188.165 19.9368C188.428 19.6715 188.742 19.4628 189.087 19.3232C189.431 19.1835 189.8 19.1158 190.172 19.124C190.464 19.1167 190.755 19.1644 191.031 19.2644C191.226 19.3331 191.406 19.4407 191.561 19.5809C191.684 19.7117 191.776 19.8702 191.828 20.0436C191.879 20.184 191.914 20.33 191.931 20.4787C191.931 20.5796 191.931 20.7042 191.931 20.8505V24.2917H191.407V23.3187C190.834 24.0754 190.192 24.4545 189.48 24.4558ZM189.48 23.9733C190.224 23.9733 190.87 23.5487 191.417 22.6996V21.8572C190.782 21.8532 190.148 21.8935 189.519 21.9778C189.417 21.9934 189.316 22.0186 189.219 22.0529C189.09 22.0986 188.966 22.1555 188.847 22.223C188.707 22.3015 188.589 22.4136 188.502 22.5493C188.408 22.6921 188.36 22.8605 188.363 23.0319C188.351 23.1739 188.377 23.3166 188.439 23.4446C188.501 23.5725 188.596 23.6809 188.714 23.7577C188.945 23.9007 189.21 23.9754 189.48 23.9733Z" fill="white"/>
</svg>
